<?xml version="1.0" standalone="no"?>
<!DOCTYPE svg PUBLIC "-//W3C//DTD SVG 20010904//EN"
 "http://www.w3.org/TR/2001/REC-SVG-20010904/DTD/svg10.dtd">
<svg version="1.0" xmlns="http://www.w3.org/2000/svg"
 width="512.000000pt" height="512.000000pt" viewBox="0 0 512.000000 512.000000"
 preserveAspectRatio="xMidYMid meet">

<g transform="translate(0.000000,512.000000) scale(0.100000,-0.100000)"
fill="#000000" stroke="none">
<path d="M2375 5091 c-217 -62 -440 -256 -612 -532 -57 -91 -155 -289 -204
-410 -22 -56 -39 -102 -37 -104 2 -1 53 -12 113 -23 228 -45 480 -74 738 -86
l97 -4 0 589 c0 555 -1 589 -17 588 -10 0 -45 -8 -78 -18z"/>
<path d="M2650 4521 l0 -589 98 4 c257 12 509 41 737 86 61 11 111 22 113 23
6 5 -82 213 -139 327 -169 336 -362 555 -594 671 -61 31 -172 67 -204 67 -8 0
-11 -166 -11 -589z"/>
<path d="M1818 5009 c-278 -84 -565 -230 -801 -407 -102 -78 -290 -247 -295
-266 -1 -6 19 -21 45 -33 26 -12 91 -40 143 -63 129 -57 417 -157 426 -147 1
1 19 47 39 102 104 279 264 539 465 757 45 48 80 88 78 87 -2 0 -47 -13 -100
-30z"/>
<path d="M3271 4962 c88 -95 233 -286 290 -383 57 -99 160 -316 194 -411 32
-91 9 -89 215 -21 139 47 430 170 430 183 0 15 -200 198 -293 268 -247 186
-559 343 -835 420 l-73 21 72 -77z"/>
<path d="M509 4088 c-139 -189 -226 -343 -317 -558 -99 -236 -166 -522 -186
-797 l-6 -83 550 0 550 0 0 83 c0 274 58 694 141 1026 21 85 38 155 36 156 -1
1 -56 19 -122 40 -159 49 -272 94 -434 171 -74 35 -134 64 -135 64 -1 0 -36
-46 -77 -102z"/>
<path d="M4465 4158 c-121 -64 -304 -139 -460 -190 -88 -28 -161 -52 -162 -53
-2 -1 15 -71 36 -156 83 -332 141 -752 141 -1026 l0 -83 550 0 550 0 -6 83
c-37 500 -203 947 -503 1355 -41 56 -78 102 -81 102 -3 -1 -32 -15 -65 -32z"/>
<path d="M1446 3817 c-81 -279 -145 -685 -162 -1019 l-7 -148 597 0 596 0 0
549 0 549 -127 6 c-281 15 -520 44 -757 92 -65 13 -120 24 -122 24 -1 0 -10
-24 -18 -53z"/>
<path d="M3575 3854 c-211 -47 -517 -86 -792 -100 l-133 -6 0 -549 0 -549 596
0 597 0 -7 148 c-14 278 -59 600 -122 861 -38 159 -54 211 -67 210 -7 -1 -39
-7 -72 -15z"/>
<path d="M5 2388 c32 -429 164 -835 389 -1193 61 -98 186 -265 198 -265 4 0
48 20 96 44 137 69 275 125 436 178 83 27 151 50 153 52 2 1 -10 54 -27 117
-81 311 -132 647 -148 994 l-7 150 -548 3 -548 2 6 -82z"/>
<path d="M1280 2413 c0 -165 41 -540 81 -751 26 -139 89 -394 100 -406 5 -5
63 2 141 17 264 51 567 87 745 87 50 0 98 3 107 6 14 6 16 64 16 555 l0 549
-595 0 -595 0 0 -57z"/>
<path d="M2650 1921 c0 -491 2 -549 16 -555 9 -3 57 -6 107 -6 178 0 481 -36
745 -87 78 -15 136 -22 141 -17 11 12 74 267 100 406 40 211 81 586 81 751 l0
57 -595 0 -595 0 0 -549z"/>
<path d="M4026 2458 c-3 -7 -7 -79 -10 -159 -13 -321 -65 -668 -146 -978 -17
-63 -29 -116 -27 -117 2 -2 70 -25 153 -52 161 -53 299 -109 436 -178 48 -24
92 -44 96 -44 12 0 137 167 198 265 225 358 357 764 389 1193 l6 82 -546 0
c-428 0 -546 -3 -549 -12z"/>
<path d="M2180 1169 c-203 -16 -637 -83 -655 -101 -8 -8 84 -227 142 -341 200
-391 467 -648 741 -711 l62 -14 0 589 0 589 -92 -1 c-51 -1 -140 -5 -198 -10z"/>
<path d="M2650 591 l0 -589 63 14 c273 63 540 320 740 711 58 114 150 333 142
341 -9 9 -188 42 -360 66 -191 27 -405 46 -517 46 l-68 0 0 -589z"/>
<path d="M1175 976 c-210 -70 -455 -175 -455 -195 0 -11 133 -136 229 -214
178 -146 438 -298 656 -385 95 -38 289 -102 308 -102 5 0 -27 39 -72 86 -211
223 -392 525 -485 812 -10 28 -18 52 -19 51 -1 0 -74 -24 -162 -53z"/>
<path d="M3775 1008 c-47 -134 -65 -179 -105 -265 -99 -211 -240 -420 -387
-573 -42 -44 -74 -82 -71 -85 7 -7 186 50 303 97 212 84 471 235 650 380 101
82 235 207 235 219 0 20 -291 143 -479 203 -126 40 -140 42 -146 24z"/>
</g>
</svg>
