<?xml version="1.0" standalone="no"?>
<!DOCTYPE svg PUBLIC "-//W3C//DTD SVG 20010904//EN"
 "http://www.w3.org/TR/2001/REC-SVG-20010904/DTD/svg10.dtd">
<svg version="1.0" xmlns="http://www.w3.org/2000/svg"
 width="512.000000pt" height="512.000000pt" viewBox="0 0 512.000000 512.000000"
 preserveAspectRatio="xMidYMid meet">
<metadata>
Created by potrace 1.16, written by Peter Selinger 2001-2019
</metadata>
<g transform="translate(0.000000,512.000000) scale(0.100000,-0.100000)"
fill="#000000" stroke="none">
<path d="M150 5104 c-69 -7 -131 -13 -137 -13 -10 -1 -13 -63 -13 -276 0 -151
2 -275 4 -275 2 0 68 7 147 15 152 17 521 22 674 10 895 -67 1712 -410 2385
-1001 970 -850 1481 -2147 1344 -3409 -7 -72 -14 -136 -14 -142 0 -10 61 -13
274 -13 l274 0 13 133 c20 193 18 729 -4 916 -30 249 -60 416 -116 637 -257
1014 -866 1921 -1711 2546 -594 439 -1291 729 -2013 838 -333 50 -812 65
-1107 34z"/>
<path d="M385 3774 c-88 -6 -251 -23 -322 -36 l-63 -10 0 -274 c0 -151 2 -274
4 -274 2 0 39 7 82 15 202 37 521 48 734 25 231 -24 490 -87 690 -167 920
-366 1543 -1150 1697 -2133 14 -89 18 -174 18 -375 0 -247 -9 -350 -42 -517
l-6 -28 276 0 275 0 10 73 c28 187 34 306 29 559 -7 374 -45 602 -157 938
-157 471 -402 877 -744 1228 -525 540 -1184 865 -1935 957 -126 15 -435 26
-546 19z"/>
<path d="M300 2414 c-58 -8 -148 -25 -200 -37 l-95 -23 -3 -293 c-2 -253 0
-292 12 -288 8 3 55 19 104 36 475 159 999 38 1357 -314 122 -120 182 -204
260 -360 110 -222 152 -413 142 -651 -7 -156 -23 -245 -72 -386 l-33 -98 292
0 292 0 22 92 c43 182 55 299 49 498 -3 102 -12 221 -20 265 -78 412 -246 735
-531 1021 -246 245 -522 403 -861 493 -210 55 -510 74 -715 45z"/>
<path d="M403 1065 c-187 -51 -341 -207 -389 -398 -24 -90 -15 -230 19 -320
56 -145 173 -263 317 -318 78 -31 254 -38 336 -14 183 52 326 196 379 378 33
115 17 284 -37 392 -70 137 -220 253 -366 284 -72 15 -195 13 -259 -4z"/>
</g>
</svg>
