<?xml version="1.0" standalone="no"?>
<!DOCTYPE svg PUBLIC "-//W3C//DTD SVG 20010904//EN"
 "http://www.w3.org/TR/2001/REC-SVG-20010904/DTD/svg10.dtd">
<svg version="1.0" xmlns="http://www.w3.org/2000/svg"
 width="512.000000pt" height="512.000000pt" viewBox="0 0 512.000000 512.000000"
 preserveAspectRatio="xMidYMid meet">

<g transform="translate(0.000000,512.000000) scale(0.100000,-0.100000)"
fill="#000000" stroke="none">
<path d="M1535 4786 c-37 -16 -70 -52 -84 -89 -8 -20 -11 -617 -11 -1963 l0
-1934 1120 0 1120 0 -2 1949 -3 1950 -21 27 c-11 15 -33 37 -48 48 -27 21 -35
21 -1034 23 -824 2 -1012 0 -1037 -11z m865 -786 l0 -160 -160 0 -160 0 0 160
0 160 160 0 160 0 0 -160z m640 0 l0 -160 -160 0 -160 0 0 160 0 160 160 0
160 0 0 -160z m-640 -640 l0 -160 -160 0 -160 0 0 160 0 160 160 0 160 0 0
-160z m640 0 l0 -160 -160 0 -160 0 0 160 0 160 160 0 160 0 0 -160z m-640
-640 l0 -160 -160 0 -160 0 0 160 0 160 160 0 160 0 0 -160z m640 0 l0 -160
-160 0 -160 0 0 160 0 160 160 0 160 0 0 -160z m-640 -640 l0 -160 -160 0
-160 0 0 160 0 160 160 0 160 0 0 -160z m640 0 l0 -160 -160 0 -160 0 0 160 0
160 160 0 160 0 0 -160z m-640 -640 l0 -160 -160 0 -160 0 0 160 0 160 160 0
160 0 0 -160z m640 0 l0 -160 -160 0 -160 0 0 160 0 160 160 0 160 0 0 -160z"/>
<path d="M575 3506 c-37 -16 -70 -52 -84 -89 -8 -20 -11 -430 -11 -1323 l0
-1294 400 0 400 0 0 1360 0 1360 -337 0 c-259 -1 -345 -4 -368 -14z m545 -786
l0 -160 -160 0 -160 0 0 160 0 160 160 0 160 0 0 -160z m0 -640 l0 -160 -160
0 -160 0 0 160 0 160 160 0 160 0 0 -160z m0 -640 l0 -160 -160 0 -160 0 0
160 0 160 160 0 160 0 0 -160z"/>
<path d="M3840 2160 l0 -1360 400 0 400 0 -2 1309 c-3 1305 -3 1310 -24 1337
-11 15 -33 37 -48 48 -26 20 -42 21 -377 24 l-349 3 0 -1361z m480 560 l0
-160 -160 0 -160 0 0 160 0 160 160 0 160 0 0 -160z m0 -640 l0 -160 -160 0
-160 0 0 160 0 160 160 0 160 0 0 -160z m0 -640 l0 -160 -160 0 -160 0 0 160
0 160 160 0 160 0 0 -160z"/>
<path d="M320 480 l0 -160 2240 0 2240 0 0 160 0 160 -2240 0 -2240 0 0 -160z"/>
</g>
</svg>
