<?xml version="1.0" standalone="no"?>
<!DOCTYPE svg PUBLIC "-//W3C//DTD SVG 20010904//EN"
 "http://www.w3.org/TR/2001/REC-SVG-20010904/DTD/svg10.dtd">
<svg version="1.0" xmlns="http://www.w3.org/2000/svg"
 width="512.000000pt" height="512.000000pt" viewBox="0 0 512.000000 512.000000"
 preserveAspectRatio="xMidYMid meet">

<g transform="translate(0.000000,512.000000) scale(0.100000,-0.100000)"
fill="#000000" stroke="none">
<path d="M2406 4940 c-226 -36 -424 -131 -579 -279 -183 -173 -293 -374 -349
-634 -31 -146 -31 -416 1 -566 46 -215 124 -404 236 -571 62 -92 197 -234 284
-300 89 -68 219 -133 327 -166 79 -24 105 -27 234 -27 129 0 155 3 234 27 416
126 742 525 846 1034 71 350 7 722 -172 998 -70 109 -241 275 -346 338 -94 56
-228 109 -334 132 -88 19 -300 26 -382 14z"/>
<path d="M1818 2400 c-296 -112 -577 -256 -868 -448 -240 -158 -321 -260 -375
-473 -71 -287 -150 -777 -142 -897 3 -61 9 -79 37 -121 57 -82 124 -114 343
-162 344 -75 831 -115 1532 -125 888 -14 1616 39 2047 146 142 35 184 56 235
114 53 60 68 114 59 219 -15 202 -108 724 -157 883 -30 100 -84 190 -153 259
-155 154 -646 437 -996 574 -180 71 -167 71 -254 16 -86 -53 -210 -106 -323
-137 -103 -28 -362 -31 -463 -6 -116 30 -234 77 -328 133 -50 30 -97 55 -104
54 -7 0 -47 -13 -90 -29z"/>
</g>
</svg>
