<?xml version="1.0" standalone="no"?>
<!DOCTYPE svg PUBLIC "-//W3C//DTD SVG 20010904//EN"
 "http://www.w3.org/TR/2001/REC-SVG-20010904/DTD/svg10.dtd">
<svg version="1.0" xmlns="http://www.w3.org/2000/svg"
 width="512.000000pt" height="512.000000pt" viewBox="0 0 512.000000 512.000000"
 preserveAspectRatio="xMidYMid meet">

<g transform="translate(0.000000,512.000000) scale(0.100000,-0.100000)"
fill="#000000" stroke="none">
<path d="M721 5109 c-55 -17 -269 -167 -354 -248 -101 -97 -158 -174 -212
-286 -88 -184 -134 -401 -142 -683 -10 -315 44 -579 184 -902 187 -432 486
-850 967 -1353 569 -595 787 -796 1133 -1044 262 -189 597 -374 823 -457 384
-140 739 -168 1127 -91 270 55 447 147 610 318 92 98 239 312 249 363 12 63 0
166 -26 218 -28 58 -189 231 -632 677 -343 346 -366 363 -488 364 -118 0 -163
-33 -655 -477 l-53 -47 -153 88 c-518 297 -786 511 -1106 887 -158 186 -372
499 -479 700 l-59 112 90 98 c240 260 391 443 421 509 54 115 20 235 -102 365
-38 41 -244 243 -458 451 -437 424 -454 438 -579 445 -40 2 -87 -1 -106 -7z"/>
</g>
</svg>
